<svg xmlns="http://www.w3.org/2000/svg" viewBox="0 0 280 260"><ellipse cx="140" cy="223" rx="98" ry="22" fill="#526146" opacity=".25"/><path d="M58 202V105l82-50 82 50v97Z" fill="#725a42"/><path d="M43 109l97-62 97 62-17 22-80-49-81 49Z" fill="#42503a"/><path d="M76 117h55v85H76Z" fill="#846748"/><path d="M149 116h53v86h-53Z" fill="#654d39"/><rect x="91" y="139" width="24" height="63" rx="4" fill="#3e342d"/><rect x="161" y="137" width="28" height="27" rx="3" fill="#d3b879"/><path d="M176 114V72M164 85l12-13 12 13M166 101l10-12 10 12" fill="none" stroke="#e3d0a7" stroke-width="4"/><path d="M46 202h190v19H46Z" fill="#5d4938"/><path d="M67 104l14-25M212 103l-14-25" stroke="#705239" stroke-width="8"/><path d="M61 81l20 9 7-21M219 81l-20 9-7-21" fill="none" stroke="#e0d3b0" stroke-width="4"/><rect x="115" y="183" width="51" height="23" rx="5" fill="#394333"/><text x="140" y="199" text-anchor="middle" font-family="sans-serif" font-size="13" fill="#efe0bd">猎人小屋</text></svg>