<svg xmlns="http://www.w3.org/2000/svg" viewBox="0 0 280 260"><ellipse cx="140" cy="223" rx="104" ry="23" fill="#526146" opacity=".24"/><path d="M57 196V111l83-43 83 43v85Z" fill="#8b6a4d"/><path d="M49 113l91-51 91 51-13 20-78-41-77 41Z" fill="#5a4637"/><path d="M38 95h204l-18-42H56Z" fill="#b75e4d"/><path d="M56 53h168l-13-20H69Z" fill="#e2bd78"/><path d="M38 95h204" stroke="#6d4137" stroke-width="7"/><path d="M67 95v24M103 95v24M140 95v24M177 95v24M213 95v24" stroke="#f1d09a" stroke-width="8"/><rect x="78" y="126" width="124" height="56" rx="7" fill="#5b4738"/><path d="M87 138h106v31H87Z" fill="#c38e58"/><rect x="59" y="181" width="162" height="18" rx="4" fill="#6b503d"/><rect x="42" y="197" width="57" height="30" rx="5" fill="#9c754c"/><rect x="181" y="197" width="57" height="30" rx="5" fill="#7f6046"/><path d="M51 206h39M190 206h39" stroke="#d2b27c" stroke-width="4"/><circle cx="121" cy="153" r="9" fill="#e3c374"/><circle cx="147" cy="153" r="9" fill="#a9b87c"/><circle cx="173" cy="153" r="9" fill="#c3745c"/><text x="140" y="191" text-anchor="middle" font-family="sans-serif" font-size="14" fill="#f4dfbd">交易站</text></svg>